<mxfile host="Electron" modified="2024-09-28T15:33:18.874Z" agent="Mozilla/5.0 (Windows NT 10.0; Win64; x64) AppleWebKit/537.36 (KHTML, like Gecko) draw.io/24.2.5 Chrome/120.0.6099.109 Electron/28.1.0 Safari/537.36" etag="qXfsPWY4eYOPMJY238RK" version="24.2.5" type="device">
  <diagram name="Page-1" id="KJCIAICJ08daeqJfOPV_">
    <mxGraphModel dx="1720" dy="828" grid="1" gridSize="10" guides="1" tooltips="1" connect="1" arrows="1" fold="1" page="1" pageScale="1" pageWidth="850" pageHeight="1100" math="0" shadow="0">
      <root>
        <mxCell id="0" />
        <mxCell id="1" parent="0" />
        <mxCell id="kcTVpYL7Or7kvm4qwinx-178" value="Department" style="rounded=0;whiteSpace=wrap;html=1;" parent="1" vertex="1">
          <mxGeometry x="280" y="560" width="210" height="30" as="geometry" />
        </mxCell>
        <mxCell id="kcTVpYL7Or7kvm4qwinx-179" value="" style="rounded=0;whiteSpace=wrap;html=1;" parent="1" vertex="1">
          <mxGeometry x="280" y="590" width="210" height="50" as="geometry" />
        </mxCell>
        <mxCell id="kcTVpYL7Or7kvm4qwinx-180" value="" style="rounded=0;whiteSpace=wrap;html=1;" parent="1" vertex="1">
          <mxGeometry x="280" y="590" width="50" height="50" as="geometry" />
        </mxCell>
        <mxCell id="kcTVpYL7Or7kvm4qwinx-181" value="&lt;span style=&quot;color: rgb(240, 240, 240); font-family: Helvetica; font-size: 12px; font-style: normal; font-variant-ligatures: normal; font-variant-caps: normal; font-weight: 400; letter-spacing: normal; orphans: 2; text-align: center; text-indent: 0px; text-transform: none; widows: 2; word-spacing: 0px; -webkit-text-stroke-width: 0px; white-space: normal; background-color: rgb(27, 29, 30); text-decoration: underline; display: inline !important; float: none;&quot;&gt;ID&lt;/span&gt;" style="text;whiteSpace=wrap;html=1;" parent="1" vertex="1">
          <mxGeometry x="290" y="600" width="80" height="40" as="geometry" />
        </mxCell>
        <mxCell id="kcTVpYL7Or7kvm4qwinx-182" value="Name" style="rounded=0;whiteSpace=wrap;html=1;" parent="1" vertex="1">
          <mxGeometry x="330" y="590" width="90" height="50" as="geometry" />
        </mxCell>
        <mxCell id="kcTVpYL7Or7kvm4qwinx-183" value="Location" style="rounded=0;whiteSpace=wrap;html=1;" parent="1" vertex="1">
          <mxGeometry x="415" y="590" width="75" height="50" as="geometry" />
        </mxCell>
        <mxCell id="kcTVpYL7Or7kvm4qwinx-192" value="Dependent" style="rounded=0;whiteSpace=wrap;html=1;" parent="1" vertex="1">
          <mxGeometry x="283.13" y="50" width="440" height="30" as="geometry" />
        </mxCell>
        <mxCell id="kcTVpYL7Or7kvm4qwinx-193" value="" style="rounded=0;whiteSpace=wrap;html=1;" parent="1" vertex="1">
          <mxGeometry x="305.63" y="80" width="210" height="40" as="geometry" />
        </mxCell>
        <mxCell id="kcTVpYL7Or7kvm4qwinx-194" value="" style="rounded=0;whiteSpace=wrap;html=1;" parent="1" vertex="1">
          <mxGeometry x="283.13" y="80" width="72.5" height="40" as="geometry" />
        </mxCell>
        <mxCell id="kcTVpYL7Or7kvm4qwinx-195" value="&lt;span style=&quot;color: rgb(240, 240, 240); font-family: Helvetica; font-size: 12px; font-style: normal; font-variant-ligatures: normal; font-variant-caps: normal; font-weight: 400; letter-spacing: normal; orphans: 2; text-align: center; text-indent: 0px; text-transform: none; widows: 2; word-spacing: 0px; -webkit-text-stroke-width: 0px; white-space: normal; background-color: rgb(27, 29, 30); text-decoration: underline; display: inline !important; float: none;&quot;&gt;Name&lt;/span&gt;" style="text;whiteSpace=wrap;html=1;" parent="1" vertex="1">
          <mxGeometry x="299.38" y="90" width="80" height="40" as="geometry" />
        </mxCell>
        <mxCell id="kcTVpYL7Or7kvm4qwinx-196" value="&lt;span style=&quot;text-decoration-line: underline;&quot;&gt;Emp_id&lt;/span&gt;" style="rounded=0;whiteSpace=wrap;html=1;" parent="1" vertex="1">
          <mxGeometry x="355.63" y="80" width="107.5" height="40" as="geometry" />
        </mxCell>
        <mxCell id="kcTVpYL7Or7kvm4qwinx-197" value="Gender" style="rounded=0;whiteSpace=wrap;html=1;" parent="1" vertex="1">
          <mxGeometry x="463.13" y="80" width="90" height="40" as="geometry" />
        </mxCell>
        <mxCell id="kcTVpYL7Or7kvm4qwinx-198" value="&lt;span style=&quot;font-size: 14px;&quot;&gt;Employee&lt;/span&gt;" style="rounded=0;whiteSpace=wrap;html=1;" parent="1" vertex="1">
          <mxGeometry x="260" y="430" width="553.75" height="40" as="geometry" />
        </mxCell>
        <mxCell id="kcTVpYL7Or7kvm4qwinx-199" value="" style="rounded=0;whiteSpace=wrap;html=1;" parent="1" vertex="1">
          <mxGeometry x="260" y="470" width="60" height="30" as="geometry" />
        </mxCell>
        <mxCell id="kcTVpYL7Or7kvm4qwinx-200" value="Adress" style="rounded=0;whiteSpace=wrap;html=1;" parent="1" vertex="1">
          <mxGeometry x="320" y="470" width="60" height="30" as="geometry" />
        </mxCell>
        <mxCell id="kcTVpYL7Or7kvm4qwinx-201" value="Age" style="rounded=0;whiteSpace=wrap;html=1;" parent="1" vertex="1">
          <mxGeometry x="380" y="470" width="60" height="30" as="geometry" />
        </mxCell>
        <mxCell id="kcTVpYL7Or7kvm4qwinx-202" value="Salary" style="rounded=0;whiteSpace=wrap;html=1;" parent="1" vertex="1">
          <mxGeometry x="440" y="470" width="50" height="30" as="geometry" />
        </mxCell>
        <mxCell id="kcTVpYL7Or7kvm4qwinx-203" value="Gender" style="rounded=0;whiteSpace=wrap;html=1;" parent="1" vertex="1">
          <mxGeometry x="490" y="470" width="50" height="30" as="geometry" />
        </mxCell>
        <mxCell id="kcTVpYL7Or7kvm4qwinx-204" value="Img" style="rounded=0;whiteSpace=wrap;html=1;" parent="1" vertex="1">
          <mxGeometry x="540" y="470" width="70" height="30" as="geometry" />
        </mxCell>
        <mxCell id="kcTVpYL7Or7kvm4qwinx-205" value="&lt;font style=&quot;font-size: 14px;&quot;&gt;Project&lt;/font&gt;" style="rounded=0;whiteSpace=wrap;html=1;" parent="1" vertex="1">
          <mxGeometry x="283.13" y="280" width="323.75" height="40" as="geometry" />
        </mxCell>
        <mxCell id="kcTVpYL7Or7kvm4qwinx-206" value="" style="rounded=0;whiteSpace=wrap;html=1;" parent="1" vertex="1">
          <mxGeometry x="283.13" y="320" width="73.75" height="30" as="geometry" />
        </mxCell>
        <mxCell id="kcTVpYL7Or7kvm4qwinx-207" value="Budget" style="rounded=0;whiteSpace=wrap;html=1;" parent="1" vertex="1">
          <mxGeometry x="357.51" y="320" width="81.25" height="30" as="geometry" />
        </mxCell>
        <mxCell id="kcTVpYL7Or7kvm4qwinx-210" value="WorksAt" style="rounded=0;whiteSpace=wrap;html=1;" parent="1" vertex="1">
          <mxGeometry x="283.13" y="170" width="323.75" height="30" as="geometry" />
        </mxCell>
        <mxCell id="kcTVpYL7Or7kvm4qwinx-212" value="" style="rounded=0;whiteSpace=wrap;html=1;" parent="1" vertex="1">
          <mxGeometry x="283.13" y="200" width="83.75" height="40" as="geometry" />
        </mxCell>
        <mxCell id="kcTVpYL7Or7kvm4qwinx-214" value="Start_Date" style="rounded=0;whiteSpace=wrap;html=1;" parent="1" vertex="1">
          <mxGeometry x="443.13" y="200" width="90" height="40" as="geometry" />
        </mxCell>
        <mxCell id="kcTVpYL7Or7kvm4qwinx-215" value="Hours" style="rounded=0;whiteSpace=wrap;html=1;" parent="1" vertex="1">
          <mxGeometry x="531.88" y="200" width="75" height="40" as="geometry" />
        </mxCell>
        <mxCell id="P-OdxjzoKCSuH9sK2x7_-1" value="&lt;span style=&quot;color: rgb(240, 240, 240); font-family: Helvetica; font-size: 12px; font-style: normal; font-variant-ligatures: normal; font-variant-caps: normal; font-weight: 400; letter-spacing: normal; orphans: 2; text-align: center; text-indent: 0px; text-transform: none; widows: 2; word-spacing: 0px; -webkit-text-stroke-width: 0px; white-space: normal; background-color: rgb(27, 29, 30); text-decoration: underline; display: inline !important; float: none;&quot;&gt;ID&lt;/span&gt;" style="text;whiteSpace=wrap;html=1;" vertex="1" parent="1">
          <mxGeometry x="280" y="470" width="80" height="40" as="geometry" />
        </mxCell>
        <mxCell id="P-OdxjzoKCSuH9sK2x7_-2" value="Name" style="rounded=0;whiteSpace=wrap;html=1;" vertex="1" parent="1">
          <mxGeometry x="610" y="470" width="70" height="30" as="geometry" />
        </mxCell>
        <mxCell id="P-OdxjzoKCSuH9sK2x7_-3" value="Start_Date" style="rounded=0;whiteSpace=wrap;html=1;" vertex="1" parent="1">
          <mxGeometry x="680" y="470" width="70" height="30" as="geometry" />
        </mxCell>
        <mxCell id="P-OdxjzoKCSuH9sK2x7_-4" value="Dept_id" style="rounded=0;whiteSpace=wrap;html=1;" vertex="1" parent="1">
          <mxGeometry x="750" y="470" width="63.75" height="30" as="geometry" />
        </mxCell>
        <mxCell id="P-OdxjzoKCSuH9sK2x7_-5" value="&lt;span style=&quot;color: rgb(240, 240, 240); font-family: Helvetica; font-size: 12px; font-style: normal; font-variant-ligatures: normal; font-variant-caps: normal; font-weight: 400; letter-spacing: normal; orphans: 2; text-align: center; text-indent: 0px; text-transform: none; widows: 2; word-spacing: 0px; -webkit-text-stroke-width: 0px; white-space: normal; background-color: rgb(27, 29, 30); text-decoration: underline; display: inline !important; float: none;&quot;&gt;Emp_ID&lt;/span&gt;" style="text;whiteSpace=wrap;html=1;" vertex="1" parent="1">
          <mxGeometry x="293.13" y="210" width="80" height="40" as="geometry" />
        </mxCell>
        <mxCell id="P-OdxjzoKCSuH9sK2x7_-7" value="Age" style="rounded=0;whiteSpace=wrap;html=1;" vertex="1" parent="1">
          <mxGeometry x="553.13" y="80" width="90" height="40" as="geometry" />
        </mxCell>
        <mxCell id="P-OdxjzoKCSuH9sK2x7_-8" value="Img" style="rounded=0;whiteSpace=wrap;html=1;" vertex="1" parent="1">
          <mxGeometry x="639.38" y="80" width="83.75" height="40" as="geometry" />
        </mxCell>
        <mxCell id="P-OdxjzoKCSuH9sK2x7_-9" value="Location" style="rounded=0;whiteSpace=wrap;html=1;" vertex="1" parent="1">
          <mxGeometry x="438.13" y="320" width="81.25" height="30" as="geometry" />
        </mxCell>
        <mxCell id="P-OdxjzoKCSuH9sK2x7_-10" value="Dept_id" style="rounded=0;whiteSpace=wrap;html=1;" vertex="1" parent="1">
          <mxGeometry x="521.88" y="320" width="85" height="30" as="geometry" />
        </mxCell>
        <mxCell id="P-OdxjzoKCSuH9sK2x7_-11" value="&lt;span style=&quot;color: rgb(240, 240, 240); font-family: Helvetica; font-size: 12px; font-style: normal; font-variant-ligatures: normal; font-variant-caps: normal; font-weight: 400; letter-spacing: normal; orphans: 2; text-align: center; text-indent: 0px; text-transform: none; widows: 2; word-spacing: 0px; -webkit-text-stroke-width: 0px; white-space: normal; background-color: rgb(27, 29, 30); text-decoration: underline; display: inline !important; float: none;&quot;&gt;ID&lt;/span&gt;" style="text;whiteSpace=wrap;html=1;" vertex="1" parent="1">
          <mxGeometry x="303.13" y="320" width="80" height="40" as="geometry" />
        </mxCell>
        <mxCell id="P-OdxjzoKCSuH9sK2x7_-12" value="" style="rounded=0;whiteSpace=wrap;html=1;" vertex="1" parent="1">
          <mxGeometry x="363.13" y="200" width="83.75" height="40" as="geometry" />
        </mxCell>
        <mxCell id="P-OdxjzoKCSuH9sK2x7_-13" value="&lt;span style=&quot;color: rgb(240, 240, 240); font-family: Helvetica; font-size: 12px; font-style: normal; font-variant-ligatures: normal; font-variant-caps: normal; font-weight: 400; letter-spacing: normal; orphans: 2; text-align: center; text-indent: 0px; text-transform: none; widows: 2; word-spacing: 0px; -webkit-text-stroke-width: 0px; white-space: normal; background-color: rgb(27, 29, 30); text-decoration: underline; display: inline !important; float: none;&quot;&gt;Project_id&lt;/span&gt;" style="text;whiteSpace=wrap;html=1;" vertex="1" parent="1">
          <mxGeometry x="373.13" y="210" width="80" height="40" as="geometry" />
        </mxCell>
        <mxCell id="P-OdxjzoKCSuH9sK2x7_-16" value="" style="endArrow=none;html=1;rounded=0;" edge="1" parent="1">
          <mxGeometry width="50" height="50" relative="1" as="geometry">
            <mxPoint x="300" y="680" as="sourcePoint" />
            <mxPoint x="780" y="680" as="targetPoint" />
          </mxGeometry>
        </mxCell>
        <mxCell id="P-OdxjzoKCSuH9sK2x7_-20" value="" style="endArrow=none;html=1;rounded=0;" edge="1" parent="1">
          <mxGeometry width="50" height="50" relative="1" as="geometry">
            <mxPoint x="240" y="210" as="sourcePoint" />
            <mxPoint x="240" y="540" as="targetPoint" />
          </mxGeometry>
        </mxCell>
        <mxCell id="P-OdxjzoKCSuH9sK2x7_-25" value="" style="endArrow=classic;html=1;rounded=0;entryX=0;entryY=0.25;entryDx=0;entryDy=0;" edge="1" parent="1" target="kcTVpYL7Or7kvm4qwinx-212">
          <mxGeometry width="50" height="50" relative="1" as="geometry">
            <mxPoint x="240" y="210" as="sourcePoint" />
            <mxPoint x="700" y="320" as="targetPoint" />
          </mxGeometry>
        </mxCell>
        <mxCell id="P-OdxjzoKCSuH9sK2x7_-26" value="" style="endArrow=none;html=1;rounded=0;" edge="1" parent="1">
          <mxGeometry width="50" height="50" relative="1" as="geometry">
            <mxPoint x="240" y="140" as="sourcePoint" />
            <mxPoint x="240" y="210" as="targetPoint" />
          </mxGeometry>
        </mxCell>
        <mxCell id="P-OdxjzoKCSuH9sK2x7_-27" value="" style="endArrow=none;html=1;rounded=0;" edge="1" parent="1">
          <mxGeometry width="50" height="50" relative="1" as="geometry">
            <mxPoint x="400" y="140" as="sourcePoint" />
            <mxPoint x="240" y="140" as="targetPoint" />
          </mxGeometry>
        </mxCell>
        <mxCell id="P-OdxjzoKCSuH9sK2x7_-28" value="" style="endArrow=classic;html=1;rounded=0;entryX=0.424;entryY=0.98;entryDx=0;entryDy=0;entryPerimeter=0;" edge="1" parent="1" target="kcTVpYL7Or7kvm4qwinx-196">
          <mxGeometry width="50" height="50" relative="1" as="geometry">
            <mxPoint x="400" y="140" as="sourcePoint" />
            <mxPoint x="700" y="320" as="targetPoint" />
          </mxGeometry>
        </mxCell>
        <mxCell id="P-OdxjzoKCSuH9sK2x7_-29" value="" style="endArrow=none;html=1;rounded=0;entryX=0;entryY=0.5;entryDx=0;entryDy=0;" edge="1" parent="1" target="kcTVpYL7Or7kvm4qwinx-206">
          <mxGeometry width="50" height="50" relative="1" as="geometry">
            <mxPoint x="260" y="335" as="sourcePoint" />
            <mxPoint x="700" y="320" as="targetPoint" />
          </mxGeometry>
        </mxCell>
        <mxCell id="P-OdxjzoKCSuH9sK2x7_-30" value="" style="endArrow=none;html=1;rounded=0;" edge="1" parent="1">
          <mxGeometry width="50" height="50" relative="1" as="geometry">
            <mxPoint x="260" y="260" as="sourcePoint" />
            <mxPoint x="260" y="335" as="targetPoint" />
          </mxGeometry>
        </mxCell>
        <mxCell id="P-OdxjzoKCSuH9sK2x7_-31" value="" style="endArrow=none;html=1;rounded=0;" edge="1" parent="1">
          <mxGeometry width="50" height="50" relative="1" as="geometry">
            <mxPoint x="400" y="260" as="sourcePoint" />
            <mxPoint x="260" y="260" as="targetPoint" />
          </mxGeometry>
        </mxCell>
        <mxCell id="P-OdxjzoKCSuH9sK2x7_-32" value="" style="endArrow=classic;html=1;rounded=0;entryX=0.336;entryY=0.75;entryDx=0;entryDy=0;entryPerimeter=0;" edge="1" parent="1" target="P-OdxjzoKCSuH9sK2x7_-13">
          <mxGeometry width="50" height="50" relative="1" as="geometry">
            <mxPoint x="400" y="260" as="sourcePoint" />
            <mxPoint x="700" y="320" as="targetPoint" />
          </mxGeometry>
        </mxCell>
        <mxCell id="P-OdxjzoKCSuH9sK2x7_-34" value="" style="endArrow=classic;html=1;rounded=0;entryX=0.5;entryY=1;entryDx=0;entryDy=0;" edge="1" parent="1" target="P-OdxjzoKCSuH9sK2x7_-4">
          <mxGeometry width="50" height="50" relative="1" as="geometry">
            <mxPoint x="780" y="680" as="sourcePoint" />
            <mxPoint x="700" y="400" as="targetPoint" />
          </mxGeometry>
        </mxCell>
        <mxCell id="P-OdxjzoKCSuH9sK2x7_-35" value="" style="endArrow=none;html=1;rounded=0;entryX=0.16;entryY=1.08;entryDx=0;entryDy=0;entryPerimeter=0;" edge="1" parent="1" target="kcTVpYL7Or7kvm4qwinx-181">
          <mxGeometry width="50" height="50" relative="1" as="geometry">
            <mxPoint x="303" y="680" as="sourcePoint" />
            <mxPoint x="581.88" y="600" as="targetPoint" />
          </mxGeometry>
        </mxCell>
        <mxCell id="P-OdxjzoKCSuH9sK2x7_-36" value="" style="endArrow=none;html=1;rounded=0;" edge="1" parent="1">
          <mxGeometry width="50" height="50" relative="1" as="geometry">
            <mxPoint x="850" y="680" as="sourcePoint" />
            <mxPoint x="780" y="680" as="targetPoint" />
          </mxGeometry>
        </mxCell>
        <mxCell id="P-OdxjzoKCSuH9sK2x7_-42" value="" style="endArrow=classic;html=1;rounded=0;entryX=0.5;entryY=1;entryDx=0;entryDy=0;" edge="1" parent="1" target="P-OdxjzoKCSuH9sK2x7_-10">
          <mxGeometry width="50" height="50" relative="1" as="geometry">
            <mxPoint x="564" y="390" as="sourcePoint" />
            <mxPoint x="660" y="525" as="targetPoint" />
          </mxGeometry>
        </mxCell>
        <mxCell id="P-OdxjzoKCSuH9sK2x7_-43" value="" style="endArrow=none;html=1;rounded=0;" edge="1" parent="1">
          <mxGeometry width="50" height="50" relative="1" as="geometry">
            <mxPoint x="240" y="540" as="sourcePoint" />
            <mxPoint x="280" y="540" as="targetPoint" />
          </mxGeometry>
        </mxCell>
        <mxCell id="P-OdxjzoKCSuH9sK2x7_-44" value="" style="endArrow=classic;html=1;rounded=0;entryX=0;entryY=0.75;entryDx=0;entryDy=0;" edge="1" parent="1" target="P-OdxjzoKCSuH9sK2x7_-1">
          <mxGeometry width="50" height="50" relative="1" as="geometry">
            <mxPoint x="280" y="540" as="sourcePoint" />
            <mxPoint x="594.38" y="525" as="targetPoint" />
          </mxGeometry>
        </mxCell>
        <mxCell id="P-OdxjzoKCSuH9sK2x7_-45" value="" style="endArrow=none;html=1;rounded=0;" edge="1" parent="1">
          <mxGeometry width="50" height="50" relative="1" as="geometry">
            <mxPoint x="850" y="390" as="sourcePoint" />
            <mxPoint x="565" y="390" as="targetPoint" />
          </mxGeometry>
        </mxCell>
        <mxCell id="P-OdxjzoKCSuH9sK2x7_-47" value="" style="endArrow=none;html=1;rounded=0;" edge="1" parent="1">
          <mxGeometry width="50" height="50" relative="1" as="geometry">
            <mxPoint x="850" y="680" as="sourcePoint" />
            <mxPoint x="850" y="390" as="targetPoint" />
          </mxGeometry>
        </mxCell>
      </root>
    </mxGraphModel>
  </diagram>
</mxfile>
